# xmcd
#
# Track frame offsets:
#	150
#	10704
#	23155
#	32996
#	45998
#	59844
#	72921
#	84496
#	103406
#	115393
#	125141
#	137022
#	150390
#	163023
#	175596
#	192711
#	206171
#	221012
#	236814
#	248675
#	266094
#	279704
#
# Disc length: 3995 seconds
#
# Revision: 0
# Processed by: cddbd v1.5.2PL0 Copyright (c) Steve Scherf et al.
# Submitted via: EZCDAudioConverter 2.0.4.1
#
DISCID=4e0f9916
DTITLE=Jan Howard - Through The Years Cd 3
DYEAR=1900
DGENRE=
TTITLE0=Jan Howard - Rock Me Back To Little Rock
TTITLE1=Jan Howard - When The Grass Grows Over Me
TTITLE2=Jan Howard - Try A Little Kindness
TTITLE3=Jan Howard - Love Is A Sometimes Thing
TTITLE4=Jan Howard and Bill Anderson - Dissatisfied
TTITLE5=Jan Howard - I Never Once Stopped Loving You
TTITLE6=Jan Howard - Let It Be
TTITLE7=Jan Howard - Bridge Over Troubled Water
TTITLE8=Jan Howard and Bill Anderson - Satin Sheets
TTITLE9=Jan Howard - It's Over
TTITLE10=Jan Howard - Remember The Good
TTITLE11=Jan Howard - We
TTITLE12=Jan Howard - You'll Never Know
TTITLE13=Jan Howard and Bill Anderson - Someday We'll Be Together
TTITLE14=Jan Howard - Poison Red Berries
TTITLE15=Jan Howard - Silver Tongue And Gold Plated Lies
TTITLE16=Jan Howard - My Coloring Book
TTITLE17=Jan Howard - I Wish I Could Love That Much Again
TTITLE18=Jan Howard - Love Is Like A Spinning Wheel
TTITLE19=Jan Howard - Ozark Mountain Jubilee
TTITLE20=Jan Howard - I Spent All My Love
TTITLE21=Jan Howard - Wind Beneath My Wings
EXTD=
EXTT0=
EXTT1=
EXTT2=
EXTT3=
EXTT4=
EXTT5=
EXTT6=
EXTT7=
EXTT8=
EXTT9=
EXTT10=
EXTT11=
EXTT12=
EXTT13=
EXTT14=
EXTT15=
EXTT16=
EXTT17=
EXTT18=
EXTT19=
EXTT20=
EXTT21=
PLAYORDER=
